<?xml version="1.0" encoding="UTF-8"?>
<!DOCTYPE svg PUBLIC "-//W3C//DTD SVG 1.1//EN" "http://www.w3.org/Graphics/SVG/1.1/DTD/svg11.dtd">
<!-- Creator: CorelDRAW -->
<svg xmlns="http://www.w3.org/2000/svg" xml:space="preserve" width="3.9027in" height="1.90822in" version="1.1" style="shape-rendering:geometricPrecision; text-rendering:geometricPrecision; image-rendering:optimizeQuality; fill-rule:evenodd; clip-rule:evenodd"
viewBox="0 0 3902.71 1908.22"
 xmlns:xlink="http://www.w3.org/1999/xlink"
 xmlns:xodm="http://www.corel.com/coreldraw/odm/2003">
 <defs>
  <style type="text/css">
   <![CDATA[
    .fil0 {fill:white;fill-rule:nonzero}
   ]]>
  </style>
 </defs>
 <g id="Layer_x0020_1">
  <metadata id="CorelCorpID_0Corel-Layer"/>
  <path class="fil0" d="M2674.39 583.97l0 -311.75c0,-24.98 -20.39,-45.37 -45.37,-45.37l-220.84 0c-14.72,0 -27.43,6.39 -36.29,18.14l-1045.39 1386.03c-130.88,159.19 -309.76,256.41 -515.78,274.36 -186.96,16.28 -380.3,-37.33 -536.16,-164.6l-15.86 -13.3c-155.99,-134.59 -242.65,-319.72 -256.69,-510.17 -13.97,-190.04 44.74,-385.67 179.46,-541.81l5.32 -6.2c334.27,-378.82 1126.93,-280.34 1126.93,93.81 0,114.01 -92.43,206.43 -206.43,206.43 -131.08,0 -249.54,-164.42 -186.05,-296 -548.45,-195.66 -938.83,516.85 -514.56,882.93 109.2,91.77 242,135.39 384.54,122.97 130.78,-11.39 257.12,-71.28 348.31,-176.98 381.07,-472.42 752.33,-996.58 1120.06,-1484.3 8.89,-11.78 21.54,-18.15 36.29,-18.15l685.51 0c24.98,0 45.37,20.38 45.37,45.37l0 538.6 470.54 0c48.99,0 93.61,-20.13 126.01,-52.53 32.42,-32.41 52.55,-77.05 52.55,-126.02l0 -178.56 -178.56 0c-48.98,0 -93.61,20.13 -126.02,52.54 -32.41,32.41 -52.54,77.03 -52.54,126.02l0 113.43 -226.86 0 0 -113.43c0,-111.61 45.58,-212.99 119,-286.41 73.43,-73.42 174.82,-119 286.41,-119l405.41 0 0 405.41c0,111.6 -45.58,212.99 -119,286.41 -73.42,73.42 -174.81,119 -286.41,119l-470.54 0 -352.37 0 -19.92 0c-66.64,5.63 -130.85,23.98 -189.32,53.41 -60.53,30.45 -115.09,72.67 -160.1,124.84l-8.5 10.54 -0.45 0 -6.03 7.63 -122.41 160.69 441.61 0 0.01 226.86 -512.3 0 -102.13 0 -363.25 476.86c-8.86,11.64 -21.46,17.87 -36.09,17.87l-158.88 0c-17.61,0 -32.71,-9.32 -40.58,-25.07 -7.87,-15.76 -6.28,-33.42 4.28,-47.51l704.21 -938.99 4.43 -6.19 12.4 -15.46 -0.27 -0.22 12.94 -14.97c64.61,-74.88 142.72,-135.37 229.23,-178.9 86.92,-43.74 182.28,-70.53 280.95,-77.78l7.97 -0.45 22.22 0zm307 1321.41l-261.63 0c-24.98,0 -45.37,-20.39 -45.37,-45.37l0 -692.07 0 -291.99 352.37 0 0 984.05c0,24.98 -20.39,45.37 -45.37,45.37z"/>
 </g>
</svg>
