<?xml version="1.0" encoding="UTF-8"?>
<!DOCTYPE svg PUBLIC "-//W3C//DTD SVG 1.1//EN" "http://www.w3.org/Graphics/SVG/1.1/DTD/svg11.dtd">
<!-- Creator: CorelDRAW -->
<svg xmlns="http://www.w3.org/2000/svg" xml:space="preserve" width="3.89052in" height="1.73204in" version="1.1" style="shape-rendering:geometricPrecision; text-rendering:geometricPrecision; image-rendering:optimizeQuality; fill-rule:evenodd; clip-rule:evenodd"
viewBox="0 0 3890.5 1732.03"
 xmlns:xlink="http://www.w3.org/1999/xlink"
 xmlns:xodm="http://www.corel.com/coreldraw/odm/2003">
 <defs>
  <style type="text/css">
   <![CDATA[
    .fil1 {fill:#5BB318;fill-rule:nonzero}
    .fil0 {fill:white;fill-rule:nonzero}
   ]]>
  </style>
 </defs>
 <g id="Layer_x0020_1">
  <metadata id="CorelCorpID_0Corel-Layer"/>
  <g id="_2087754524800">
   <path class="fil0" d="M16.79 1589.7c-11.19,-12.17 -16.79,-27.74 -16.79,-46.72 13.14,0 25.43,-3.89 36.86,-11.68 11.44,-7.79 19.83,-19.71 25.18,-35.77l119.71 -353.29c-19.46,-6.33 -44.04,-9.49 -73.72,-9.49 0,-20.93 5.84,-38.44 17.52,-52.55l200 0 135.77 413.14c5.35,16.06 13.87,28.35 25.55,36.86 11.68,8.52 23.84,12.78 36.5,12.78 0,18.98 -5.59,34.55 -16.79,46.72l-197.81 0c-11.19,-12.17 -16.79,-27.74 -16.79,-46.72 12.65,0 22.75,-2.8 30.3,-8.39 7.54,-5.6 11.31,-14.48 11.31,-26.64 0,-4.38 -0.36,-9.49 -1.09,-15.33 -0.73,-5.84 -2.07,-12.17 -4.01,-18.98l-4.38 -15.33 -163.51 0 -4.38 15.33c-1.95,6.33 -3.53,12.17 -4.74,17.52 -1.22,5.35 -1.83,10.22 -1.83,14.6 0,13.14 4.14,22.63 12.41,28.47 8.27,5.84 19.71,8.76 34.31,8.76 0,18.98 -5.59,34.55 -16.79,46.72l-162.78 0zm159.86 -188.33l131.39 0 -51.83 -181.02c-4.38,-14.6 -9.97,-27.01 -16.79,-37.23l-62.78 218.25zm366.43 188.33c-5.35,-5.84 -9.49,-11.92 -12.41,-18.25 -2.92,-6.33 -4.38,-13.38 -4.38,-21.17 14.11,0 24.33,-3.04 30.66,-9.12 6.33,-6.09 9.49,-16.43 9.49,-31.02l0 -387.6c0,-11.19 -3.16,-20.07 -9.49,-26.64 -6.33,-6.57 -19.71,-9.85 -40.15,-9.85l0 -29.2c12.17,-6.81 26.4,-12.78 42.7,-17.89 16.3,-5.11 32.48,-9.24 48.54,-12.41 16.06,-3.16 29.44,-4.74 40.15,-4.74 11.19,0 19.34,2.43 24.45,7.3 5.11,4.87 7.66,13.38 7.66,25.55l0 455.49c0,15.08 3.04,25.55 9.13,31.39 6.08,5.84 16.43,8.76 31.02,8.76 0,7.79 -1.58,14.84 -4.74,21.17 -3.17,6.33 -7.42,12.41 -12.78,18.25l-159.86 0zm297.09 -447.45c-20.93,0 -37.59,-6.2 -50,-18.61 -12.41,-12.41 -18.61,-29.07 -18.61,-50 0,-20.44 6.45,-36.98 19.35,-49.64 12.89,-12.65 29.8,-18.98 50.73,-18.98 21.41,0 38.32,6.33 50.73,18.98 12.41,12.65 18.61,29.2 18.61,49.64 0,20.93 -6.45,37.59 -19.34,50 -12.9,12.41 -30.05,18.61 -51.46,18.61zm-54.75 589.79c-22.39,0 -38.81,-4.26 -49.27,-12.77 -10.46,-8.52 -15.69,-17.4 -15.69,-26.65 0,-3.41 0.73,-7.3 2.19,-11.68 1.46,-4.38 2.92,-7.54 4.38,-9.49 18.98,0 33.82,-5.72 44.52,-17.15 10.71,-11.43 16.06,-32.24 16.06,-62.41l0 -295.62c0,-11.19 -3.04,-19.95 -9.12,-26.28 -6.08,-6.33 -19.1,-9.49 -39.05,-9.49l0 -32.85c12.17,-6.33 26.52,-12.05 43.06,-17.15 16.55,-5.11 32.85,-9.25 48.91,-12.41 16.06,-3.17 29.2,-4.74 39.42,-4.74 11.68,0 19.83,2.43 24.45,7.3 4.62,4.87 6.93,13.38 6.93,25.55l0 370.81c0,30.66 -5.35,55.96 -16.06,75.91 -10.7,19.95 -24.82,34.8 -42.33,44.53 -17.52,9.73 -36.98,14.6 -58.4,14.6zm296.36 -137.23c-36.5,0 -66.06,-10.1 -88.69,-30.3 -22.63,-20.19 -33.94,-46.11 -33.94,-77.74 0,-31.63 10.34,-57.18 31.02,-76.65 20.68,-19.46 52.68,-29.2 95.99,-29.2 14.11,0 28.95,1.34 44.52,4.02 15.57,2.67 28.22,6.69 37.96,12.04l0 -97.08c0,-20.44 -5.23,-34.67 -15.69,-42.7 -10.46,-8.03 -23.24,-12.05 -38.32,-12.05 -16.06,0 -29.2,3.89 -39.42,11.68 9.74,3.41 16.79,8.64 21.17,15.69 4.38,7.06 6.57,14.72 6.57,22.99 0,16.06 -5.72,28.83 -17.15,38.32 -11.44,9.49 -25.43,14.24 -41.97,14.24 -18.49,0 -33.33,-5.48 -44.53,-16.43 -11.19,-10.95 -16.79,-24.7 -16.79,-41.24 0,-16.55 5.59,-32.24 16.79,-47.08 11.19,-14.84 28.59,-27.13 52.19,-36.86 23.6,-9.73 54.14,-14.6 91.61,-14.6 97.81,0 146.72,38.68 146.72,116.06l0 193.44c0,23.36 11.19,37.47 33.58,42.33l0 23.36c-6.33,9.25 -17.04,16.18 -32.12,20.8 -15.09,4.63 -29.68,6.94 -43.8,6.94 -33.09,0 -56.45,-11.44 -70.07,-34.31 -9.73,8.76 -22.63,16.67 -38.68,23.72 -16.06,7.06 -35.04,10.59 -56.94,10.59zm47.45 -59.13c6.81,0 13.87,-1.09 21.17,-3.28 7.3,-2.19 13.38,-4.99 18.25,-8.4l0 -70.8c-4.87,-3.41 -11.07,-6.33 -18.61,-8.76 -7.54,-2.43 -14.96,-3.65 -22.26,-3.65 -12.65,0 -23.6,4.02 -32.85,12.04 -9.24,8.03 -13.87,20.56 -13.87,37.59 0,13.14 4.38,23.96 13.14,32.48 8.76,8.52 20.44,12.78 35.04,12.78zm763.52 58.39c-18,0 -33.46,-2.55 -46.35,-7.66 -12.9,-5.11 -19.34,-15.21 -19.34,-30.3l0 -243.07c0,-15.57 -4.26,-27.61 -12.78,-36.13 -8.52,-8.52 -19.83,-12.78 -33.94,-12.78 -7.79,0 -15.7,1.46 -23.72,4.38 -8.03,2.92 -15.21,7.3 -21.54,13.14 0.49,1.94 0.73,3.77 0.73,5.47 0,1.7 0,3.53 0,5.48l0 218.25c0,14.11 2.92,24.21 8.76,30.3 5.84,6.08 15.08,9.12 27.74,9.12 0,7.79 -1.58,14.96 -4.74,21.54 -3.16,6.57 -7.42,12.53 -12.78,17.88l-155.48 0c-4.87,-5.35 -8.88,-11.31 -12.04,-17.88 -3.17,-6.57 -4.74,-13.75 -4.74,-21.54 12.65,0 21.53,-3.04 26.64,-9.12 5.11,-6.09 7.67,-16.18 7.67,-30.3l0 -197.81c0,-15.57 -4.5,-27.61 -13.5,-36.13 -9,-8.52 -19.83,-12.78 -32.48,-12.78 -9.24,0 -18.74,2.19 -28.47,6.57 -9.73,4.38 -18,10.7 -24.81,18.98l0 221.17c0,14.11 2.55,24.21 7.66,30.3 5.11,6.08 13.75,9.12 25.91,9.12 0,15.09 -5.84,28.22 -17.52,39.42l-158.4 0c-5.35,-5.35 -9.61,-11.31 -12.77,-17.88 -3.17,-6.57 -4.74,-13.75 -4.74,-21.54 14.6,0 25.06,-3.04 31.39,-9.12 6.33,-6.09 9.49,-16.18 9.49,-30.3l0 -213.87c0,-12.65 -3.53,-21.9 -10.58,-27.74 -7.06,-5.84 -19.83,-8.76 -38.32,-8.76l0 -32.12c11.19,-6.81 25.43,-12.89 42.7,-18.25 17.28,-5.35 34.07,-9.61 50.37,-12.78 16.3,-3.16 28.83,-4.74 37.59,-4.74 9.73,0 17.88,3.04 24.45,9.13 6.57,6.08 10.83,18.61 12.78,37.59 12.65,-14.11 28.59,-25.43 47.81,-33.94 19.22,-8.52 41,-12.78 65.33,-12.78 48.67,0 80.29,16.3 94.89,48.91 12.65,-15.57 29.08,-27.61 49.27,-36.13 20.2,-8.52 42.7,-12.78 67.52,-12.78 35.04,0 61.19,8.52 78.47,25.55 17.28,17.03 25.91,41.85 25.91,74.46l0 218.25c0,11.19 3.17,19.71 9.49,25.55 6.32,5.84 15.08,9.98 26.28,12.41l0 21.17c-8.76,7.79 -20.19,13.75 -34.31,17.88 -14.11,4.14 -32.6,6.2 -55.48,6.2zm242.34 0.73c-36.5,0 -66.06,-10.1 -88.69,-30.3 -22.63,-20.19 -33.94,-46.11 -33.94,-77.74 0,-31.63 10.34,-57.18 31.02,-76.65 20.68,-19.46 52.68,-29.2 95.99,-29.2 14.11,0 28.95,1.34 44.52,4.02 15.57,2.67 28.22,6.69 37.96,12.04l0 -97.08c0,-20.44 -5.23,-34.67 -15.69,-42.7 -10.46,-8.03 -23.24,-12.05 -38.32,-12.05 -16.06,0 -29.2,3.89 -39.42,11.68 9.74,3.41 16.79,8.64 21.17,15.69 4.38,7.06 6.57,14.72 6.57,22.99 0,16.06 -5.72,28.83 -17.15,38.32 -11.44,9.49 -25.43,14.24 -41.97,14.24 -18.49,0 -33.33,-5.48 -44.53,-16.43 -11.19,-10.95 -16.79,-24.7 -16.79,-41.24 0,-16.55 5.59,-32.24 16.79,-47.08 11.19,-14.84 28.59,-27.13 52.19,-36.86 23.6,-9.73 54.14,-14.6 91.61,-14.6 97.81,0 146.72,38.68 146.72,116.06l0 193.44c0,23.36 11.19,37.47 33.58,42.33l0 23.36c-6.33,9.25 -17.04,16.18 -32.12,20.8 -15.09,4.63 -29.68,6.94 -43.8,6.94 -33.09,0 -56.45,-11.44 -70.07,-34.31 -9.73,8.76 -22.63,16.67 -38.68,23.72 -16.06,7.06 -35.04,10.59 -56.94,10.59zm47.45 -59.13c6.81,0 13.87,-1.09 21.17,-3.28 7.3,-2.19 13.38,-4.99 18.25,-8.4l0 -70.8c-4.87,-3.41 -11.07,-6.33 -18.61,-8.76 -7.54,-2.43 -14.96,-3.65 -22.26,-3.65 -12.65,0 -23.6,4.02 -32.85,12.04 -9.24,8.03 -13.87,20.56 -13.87,37.59 0,13.14 4.38,23.96 13.14,32.48 8.76,8.52 20.44,12.78 35.04,12.78zm377.38 61.31c-17.52,0 -35.16,-1.94 -52.92,-5.84 -17.76,-3.89 -34.06,-9.49 -48.91,-16.79 -14.84,-7.3 -26.89,-16.42 -36.13,-27.37 -9.24,-10.95 -13.87,-23.48 -13.87,-37.59 0,-17.03 4.87,-30.78 14.6,-41.24 9.74,-10.46 22.14,-15.69 37.23,-15.69 13.63,0 25.18,4.38 34.67,13.14 9.49,8.76 14.23,20.2 14.23,34.31 0,6.33 -0.97,11.8 -2.92,16.43 -1.95,4.62 -4.87,9.61 -8.76,14.96 4.38,4.38 12.17,7.54 23.36,9.49 11.19,1.94 22.14,2.92 32.85,2.92 17.03,0 30.17,-3.16 39.42,-9.49 9.25,-6.33 13.87,-14.11 13.87,-23.36 0,-14.6 -7.79,-27.13 -23.36,-37.59 -15.57,-10.46 -33.33,-21.05 -53.29,-31.75 -18,-9.74 -35.89,-20.07 -53.65,-31.02 -17.76,-10.95 -32.61,-24.7 -44.53,-41.24 -11.92,-16.54 -17.88,-37.47 -17.88,-62.78 0,-32.11 13.38,-58.64 40.15,-79.56 26.76,-20.93 64.72,-31.39 113.87,-31.39 34.07,0 61.31,4.26 81.76,12.77 20.44,8.52 35.28,19.22 44.52,32.12 9.25,12.9 13.87,26.4 13.87,40.51 0,15.09 -4.74,27.13 -14.23,36.13 -9.49,9 -21.05,13.5 -34.67,13.5 -12.17,0 -22.87,-3.77 -32.12,-11.31 -9.24,-7.54 -13.87,-17.4 -13.87,-29.56 0,-5.84 0.98,-12.17 2.92,-18.98 1.94,-6.81 4.62,-12.41 8.03,-16.79 -5.35,-4.38 -11.56,-7.42 -18.61,-9.12 -7.06,-1.7 -15.45,-2.56 -25.18,-2.56 -16.06,0 -28.35,3.77 -36.86,11.31 -8.52,7.54 -12.77,16.67 -12.77,27.37 0,16.55 7.91,30.17 23.72,40.88 15.81,10.7 33.46,21.17 52.92,31.39 18.01,9.25 35.65,19.22 52.92,29.93 17.28,10.7 31.75,24.09 43.43,40.15 11.68,16.06 17.52,36.74 17.52,62.05 0,27.25 -7.79,49.03 -23.36,65.33 -15.57,16.3 -35.65,28.1 -60.22,35.4 -24.57,7.3 -50.49,10.95 -77.74,10.95z"/>
   <path class="fil1" d="M3027.94 1275.26l0 33.39 -136.69 0 0 106.02 110.98 0 0 33.38 -110.98 0 0 141.66 -41.05 0 0 -314.44 177.75 0zm157.44 318.5c-23.16,0 -44.14,-5.26 -62.93,-15.79 -18.8,-10.53 -33.54,-25.49 -44.21,-44.89 -10.68,-19.4 -16.02,-41.88 -16.02,-67.44 0,-25.26 5.49,-47.59 16.47,-66.99 10.98,-19.4 25.94,-34.29 44.89,-44.66 18.95,-10.38 40.15,-15.57 63.61,-15.57 23.46,0 44.66,5.19 63.61,15.57 18.95,10.37 33.91,25.19 44.89,44.44 10.98,19.25 16.46,41.65 16.46,67.22 0,25.57 -5.64,48.05 -16.92,67.44 -11.28,19.4 -26.54,34.36 -45.79,44.89 -19.25,10.52 -40.6,15.79 -64.06,15.79zm0 -36.09c14.74,0 28.57,-3.46 41.5,-10.37 12.93,-6.92 23.38,-17.3 31.35,-31.13 7.97,-13.83 11.95,-30.68 11.95,-50.53 0,-19.85 -3.91,-36.69 -11.73,-50.53 -7.82,-13.83 -18.04,-24.13 -30.68,-30.9 -12.63,-6.77 -26.31,-10.15 -41.05,-10.15 -15.04,0 -28.8,3.38 -41.28,10.15 -12.48,6.77 -22.48,17.07 -30,30.9 -7.52,13.83 -11.28,30.68 -11.28,50.53 0,20.15 3.69,37.15 11.05,50.98 7.37,13.83 17.22,24.13 29.55,30.9 12.33,6.77 25.87,10.15 40.6,10.15zm288.72 36.09c-23.16,0 -44.14,-5.26 -62.93,-15.79 -18.8,-10.53 -33.54,-25.49 -44.21,-44.89 -10.68,-19.4 -16.02,-41.88 -16.02,-67.44 0,-25.26 5.49,-47.59 16.47,-66.99 10.98,-19.4 25.94,-34.29 44.89,-44.66 18.95,-10.38 40.15,-15.57 63.61,-15.57 23.46,0 44.66,5.19 63.61,15.57 18.95,10.37 33.91,25.19 44.89,44.44 10.98,19.25 16.46,41.65 16.46,67.22 0,25.57 -5.64,48.05 -16.92,67.44 -11.28,19.4 -26.54,34.36 -45.79,44.89 -19.25,10.52 -40.6,15.79 -64.06,15.79zm0 -36.09c14.74,0 28.57,-3.46 41.5,-10.37 12.93,-6.92 23.38,-17.3 31.35,-31.13 7.97,-13.83 11.95,-30.68 11.95,-50.53 0,-19.85 -3.91,-36.69 -11.73,-50.53 -7.82,-13.83 -18.04,-24.13 -30.68,-30.9 -12.63,-6.77 -26.31,-10.15 -41.05,-10.15 -15.04,0 -28.8,3.38 -41.28,10.15 -12.48,6.77 -22.48,17.07 -30,30.9 -7.52,13.83 -11.28,30.68 -11.28,50.53 0,20.15 3.69,37.15 11.05,50.98 7.37,13.83 17.22,24.13 29.55,30.9 12.33,6.77 25.87,10.15 40.6,10.15zm165.56 -92.48c0,-25.26 5.11,-47.44 15.34,-66.54 10.23,-19.1 24.29,-33.91 42.18,-44.44 17.9,-10.53 37.97,-15.79 60.23,-15.79 19.25,0 37.14,4.44 53.68,13.31 16.54,8.87 29.17,20.53 37.89,34.96l0 -130.83 41.5 0 0 333.84 -41.5 0 0 -46.47c-8.12,14.74 -20.15,26.84 -36.09,36.32 -15.94,9.47 -34.59,14.21 -55.94,14.21 -21.95,0 -41.88,-5.41 -59.78,-16.24 -17.89,-10.83 -31.95,-26.02 -42.18,-45.56 -10.22,-19.55 -15.34,-41.81 -15.34,-66.77zm209.33 0.45c0,-18.65 -3.76,-34.89 -11.28,-48.72 -7.52,-13.83 -17.67,-24.44 -30.45,-31.81 -12.78,-7.37 -26.84,-11.05 -42.18,-11.05 -15.34,0 -29.32,3.61 -41.96,10.83 -12.63,7.22 -22.71,17.74 -30.22,31.58 -7.52,13.83 -11.28,30.07 -11.28,48.72 0,18.94 3.76,35.41 11.28,49.4 7.52,13.98 17.59,24.66 30.22,32.03 12.63,7.37 26.62,11.05 41.96,11.05 15.34,0 29.4,-3.69 42.18,-11.05 12.78,-7.37 22.93,-18.05 30.45,-32.03 7.52,-13.98 11.28,-30.3 11.28,-48.95z"/>
   <path class="fil1" d="M2294.48 282.05l0 -150.57c0,-12.06 -9.84,-21.91 -21.91,-21.91l-106.66 0c-7.11,0 -13.25,3.08 -17.53,8.76l-504.91 669.44c-63.21,76.89 -149.61,123.85 -249.12,132.51 -90.3,7.86 -183.68,-18.03 -258.96,-79.5l-7.66 -6.43c-75.34,-65.01 -117.2,-154.42 -123.98,-246.41 -6.75,-91.78 21.61,-186.27 86.68,-261.69l2.57 -3c161.45,-182.96 544.3,-135.4 544.3,45.31 0,55.06 -44.64,99.7 -99.7,99.7 -63.31,0 -120.53,-79.41 -89.86,-142.97 -264.9,-94.5 -453.45,249.63 -248.53,426.45 52.74,44.33 116.89,65.39 185.73,59.39 63.17,-5.5 124.19,-34.43 168.23,-85.48 184.05,-228.17 363.37,-481.34 540.98,-716.9 4.29,-5.69 10.41,-8.76 17.53,-8.76l331.09 0c12.07,0 21.91,9.85 21.91,21.91l0 260.14 227.27 0c23.66,0 45.21,-9.72 60.86,-25.37 15.66,-15.65 25.38,-37.21 25.38,-60.87l0 -86.24 -86.24 0c-23.66,0 -45.22,9.72 -60.87,25.37 -15.65,15.65 -25.37,37.2 -25.37,60.87l0 54.79 -109.57 0 0 -54.79c0,-53.91 22.02,-102.87 57.48,-138.33 35.46,-35.46 84.43,-57.48 138.33,-57.48l195.81 0 0 195.81c0,53.9 -22.02,102.87 -57.48,138.33 -35.46,35.46 -84.43,57.48 -138.33,57.48l-227.27 0 -170.19 0 -9.62 0c-32.18,2.72 -63.2,11.58 -91.44,25.8 -29.24,14.71 -55.59,35.1 -77.33,60.3l-4.1 5.09 -0.22 0 -2.92 3.69 -59.12 77.61 213.29 0 0.01 109.57 -247.44 0 -49.33 0 -175.44 230.32c-4.28,5.62 -10.37,8.63 -17.43,8.63l-76.74 0c-8.5,0 -15.8,-4.5 -19.6,-12.11 -3.8,-7.61 -3.03,-16.14 2.07,-22.94l340.12 -453.53 2.14 -2.99 5.99 -7.46 -0.13 -0.11 6.25 -7.23c31.21,-36.17 68.93,-65.39 110.72,-86.41 41.98,-21.12 88.04,-34.06 135.7,-37.57l3.85 -0.22 10.73 0zm148.28 638.22l-126.37 0c-12.07,0 -21.91,-9.84 -21.91,-21.91l0 -334.26 0 -141.03 170.19 0 0 475.29c0,12.07 -9.85,21.91 -21.91,21.91z"/>
  </g>
 </g>
</svg>
